<mxfile host="Electron" modified="2023-08-09T04:46:51.659Z" agent="Mozilla/5.0 (Windows NT 10.0; Win64; x64) AppleWebKit/537.36 (KHTML, like Gecko) draw.io/21.6.5 Chrome/114.0.5735.243 Electron/25.3.1 Safari/537.36" etag="GIES_3OUBlWoPwrdivT6" version="21.6.5" type="device">
  <diagram name="Page-1" id="KjaNvtWSXkCB7jWdk36v">
    <mxGraphModel dx="880" dy="545" grid="1" gridSize="10" guides="1" tooltips="1" connect="1" arrows="1" fold="1" page="1" pageScale="1" pageWidth="1169" pageHeight="827" math="0" shadow="0">
      <root>
        <mxCell id="0" />
        <mxCell id="1" parent="0" />
        <mxCell id="EhmcX804Ge7IDbszCrvP-11" style="edgeStyle=orthogonalEdgeStyle;shape=connector;rounded=0;orthogonalLoop=1;jettySize=auto;html=1;exitX=0.495;exitY=0.1;exitDx=0;exitDy=0;exitPerimeter=0;entryX=0;entryY=0.165;entryDx=0;entryDy=0;entryPerimeter=0;dashed=1;labelBackgroundColor=none;strokeColor=default;fontFamily=Helvetica;fontSize=11;fontColor=default;startArrow=none;startFill=0;endArrow=open;endFill=0;endSize=8;" edge="1" parent="1" source="EhmcX804Ge7IDbszCrvP-3" target="EhmcX804Ge7IDbszCrvP-6">
          <mxGeometry relative="1" as="geometry">
            <Array as="points">
              <mxPoint x="99" y="28" />
            </Array>
          </mxGeometry>
        </mxCell>
        <mxCell id="EhmcX804Ge7IDbszCrvP-12" value="«reference»" style="edgeLabel;html=1;align=center;verticalAlign=middle;resizable=0;points=[];fontSize=11;fontFamily=Helvetica;fontColor=default;" vertex="1" connectable="0" parent="EhmcX804Ge7IDbszCrvP-11">
          <mxGeometry x="0.4902" y="1" relative="1" as="geometry">
            <mxPoint x="10" y="-13" as="offset" />
          </mxGeometry>
        </mxCell>
        <mxCell id="EhmcX804Ge7IDbszCrvP-3" value="&lt;span style=&quot;font-weight: normal;&quot;&gt;«profile» MyProfile&lt;/span&gt;" style="shape=folder;fontStyle=1;spacingTop=10;tabWidth=40;tabHeight=14;tabPosition=left;html=1;whiteSpace=wrap;fontFamily=Helvetica;fontSize=11;fontColor=default;align=left;verticalAlign=top;" vertex="1" parent="1">
          <mxGeometry y="40" width="200" height="120" as="geometry" />
        </mxCell>
        <mxCell id="EhmcX804Ge7IDbszCrvP-5" value="«stereotype»&lt;br&gt;MyStereotype" style="shape=rect;html=1;whiteSpace=wrap;align=center;fontFamily=Helvetica;fontSize=11;fontColor=default;" vertex="1" parent="1">
          <mxGeometry x="70" y="100" width="110" height="40" as="geometry" />
        </mxCell>
        <mxCell id="EhmcX804Ge7IDbszCrvP-6" value="MyMetamodel" style="shape=folder;fontStyle=0;tabWidth=80;tabHeight=10;tabPosition=left;html=1;boundedLbl=1;folderSymbol=triangle;whiteSpace=wrap;fontFamily=Helvetica;fontSize=11;fontColor=default;align=left;verticalAlign=top;" vertex="1" parent="1">
          <mxGeometry x="280" width="230" height="170" as="geometry" />
        </mxCell>
        <mxCell id="EhmcX804Ge7IDbszCrvP-7" value="«stereotype»&lt;br&gt;Metaclass2" style="shape=rect;html=1;whiteSpace=wrap;align=center;fontFamily=Helvetica;fontSize=11;fontColor=default;" vertex="1" parent="1">
          <mxGeometry x="360" y="60" width="110" height="40" as="geometry" />
        </mxCell>
        <mxCell id="EhmcX804Ge7IDbszCrvP-8" value="«stereotype»&lt;br&gt;Metaclass1" style="shape=rect;html=1;whiteSpace=wrap;align=center;fontFamily=Helvetica;fontSize=11;fontColor=default;" vertex="1" parent="1">
          <mxGeometry x="360" y="110" width="110" height="40" as="geometry" />
        </mxCell>
        <mxCell id="EhmcX804Ge7IDbszCrvP-9" style="edgeStyle=none;shape=connector;rounded=0;orthogonalLoop=1;jettySize=auto;html=1;entryX=0;entryY=0.5;entryDx=0;entryDy=0;dashed=1;labelBackgroundColor=none;strokeColor=default;fontFamily=Helvetica;fontSize=11;fontColor=default;startArrow=none;startFill=0;endArrow=open;endFill=0;endSize=8;" edge="1" parent="1" target="EhmcX804Ge7IDbszCrvP-7">
          <mxGeometry relative="1" as="geometry">
            <mxPoint x="200" y="80" as="sourcePoint" />
          </mxGeometry>
        </mxCell>
        <mxCell id="EhmcX804Ge7IDbszCrvP-10" value="«reference»" style="edgeLabel;html=1;align=center;verticalAlign=middle;resizable=0;points=[];fontSize=11;fontFamily=Helvetica;fontColor=default;" vertex="1" connectable="0" parent="EhmcX804Ge7IDbszCrvP-9">
          <mxGeometry x="0.3249" y="-2" relative="1" as="geometry">
            <mxPoint x="10" y="-17" as="offset" />
          </mxGeometry>
        </mxCell>
        <mxCell id="EhmcX804Ge7IDbszCrvP-14" style="edgeStyle=none;shape=connector;rounded=0;orthogonalLoop=1;jettySize=auto;html=1;exitX=1;exitY=0.75;exitDx=0;exitDy=0;entryX=0;entryY=0.5;entryDx=0;entryDy=0;dashed=1;labelBackgroundColor=none;strokeColor=default;fontFamily=Helvetica;fontSize=11;fontColor=default;startArrow=none;startFill=0;endArrow=blockThin;endFill=1;endSize=12;" edge="1" parent="1" source="EhmcX804Ge7IDbszCrvP-5" target="EhmcX804Ge7IDbszCrvP-8">
          <mxGeometry relative="1" as="geometry" />
        </mxCell>
        <mxCell id="EhmcX804Ge7IDbszCrvP-15" value="&lt;b&gt;Figure 12.14 Specification of an Available Metaclass&lt;/b&gt;" style="text;html=1;align=left;verticalAlign=middle;resizable=0;points=[];autosize=1;strokeColor=none;fillColor=none;fontSize=11;fontFamily=Helvetica;fontColor=default;" vertex="1" parent="1">
          <mxGeometry y="170" width="290" height="30" as="geometry" />
        </mxCell>
      </root>
    </mxGraphModel>
  </diagram>
</mxfile>
